<svg width="195" height="49" viewBox="0 0 195 49" fill="none" xmlns="http://www.w3.org/2000/svg">
<path d="M17.4602 31.7787V31.7345L8.98267 20.5398C7.25737 18.2464 4.35394 17.4431 2.05819 19.1894C-0.216597 20.91 -0.679939 24.1558 1.0407 26.4492L15.0364 44.9711C16.6941 47.5975 19.7629 48.8571 22.8084 48.1284C24.9504 47.6208 26.6501 46.2517 27.6001 44.3984C25.8771 42.1259 17.4602 31.7787 17.4602 31.7787ZM37.0695 25.2803C36.7807 24.9055 36.6061 24.6843 36.6061 24.6843V24.661L31.4838 17.9484C29.6071 15.4757 26.4918 14.4838 23.5348 15.4315C20.5569 16.3814 18.6127 19.0101 18.5242 22.0998L18.4567 24.4375L28.4546 37.6857L28.6315 31.3061L34.3267 38.7894C36.2685 41.3506 39.5375 42.2982 42.5387 41.2178C42.6062 41.1946 42.6714 41.1736 42.739 41.1294C44.4829 40.4448 45.8287 39.1642 46.5807 37.5763C44.597 35.0175 38.7459 27.4667 37.0695 25.2803Z" fill="#192B3A"/>
<path d="M47.6099 17.1451L51.4423 15.7342L51.4819 15.7202L53.3027 15.0543C55.3819 14.2836 57.666 15.357 58.4343 17.4408C59.1817 19.52 58.127 21.8041 56.0431 22.5725L51.1257 24.363L51.0861 24.377L47.4492 25.7157" fill="#192B3A"/>
<path d="M47.4237 27.2897L47.3352 30.9755L37.2256 17.5526V17.5293L37.2931 13.3593C37.2931 9.13564 39.5423 5.23335 43.5401 3.77813L53.0327 0.311234C55.7266 -0.657355 58.7045 0.707053 59.6801 3.40094C60.672 6.09483 59.2796 9.07511 56.5904 10.0484L47.6729 13.315L47.6403 16.1509" fill="#192B3A"/>
<path d="M78.304 34H81.52L84.868 22.336L88.216 34H91.432L96.496 16.72H93.064L89.824 28.6L86.584 16.72L83.152 16.744L79.912 28.6L76.672 16.72H73.24L78.304 34ZM102.825 34.36C104.121 34.36 105.261 34.072 106.245 33.496C107.237 32.912 108.009 32.108 108.561 31.084C109.121 30.052 109.401 28.864 109.401 27.52C109.401 26.184 109.125 25.004 108.573 23.98C108.021 22.948 107.249 22.14 106.257 21.556C105.273 20.972 104.129 20.68 102.825 20.68C101.545 20.68 100.413 20.968 99.4285 21.544C98.4445 22.12 97.6725 22.924 97.1125 23.956C96.5525 24.98 96.2725 26.168 96.2725 27.52C96.2725 28.856 96.5445 30.04 97.0885 31.072C97.6405 32.096 98.4085 32.9 99.3925 33.484C100.377 34.068 101.521 34.36 102.825 34.36ZM102.825 31.312C101.809 31.312 101.037 30.972 100.509 30.292C99.9885 29.604 99.7285 28.68 99.7285 27.52C99.7285 26.392 99.9765 25.48 100.473 24.784C100.977 24.08 101.761 23.728 102.825 23.728C103.857 23.728 104.633 24.072 105.153 24.76C105.681 25.448 105.945 26.368 105.945 27.52C105.945 28.632 105.685 29.544 105.165 30.256C104.653 30.96 103.873 31.312 102.825 31.312ZM112.015 34H115.327V27.424C115.327 26.616 115.415 25.968 115.591 25.48C115.775 24.992 116.007 24.624 116.287 24.376C116.567 24.12 116.867 23.948 117.187 23.86C117.507 23.772 117.807 23.728 118.087 23.728C118.783 23.728 119.319 23.884 119.695 24.196C120.079 24.508 120.355 24.896 120.523 25.36C120.691 25.824 120.791 26.288 120.823 26.752C120.855 27.208 120.871 27.584 120.871 27.88V34H124.183V26.728C124.183 26.512 124.167 26.168 124.135 25.696C124.103 25.224 124.011 24.704 123.859 24.136C123.707 23.56 123.451 23.008 123.091 22.48C122.739 21.952 122.243 21.516 121.603 21.172C120.963 20.828 120.135 20.656 119.119 20.656C118.183 20.656 117.367 20.812 116.671 21.124C115.975 21.436 115.391 21.852 114.919 22.372V16.72H112.015V34ZM127.537 34H130.801V16.36H127.537V34ZM134.399 34H137.663V26.992H143.519V23.728H137.663V19.984H144.959V16.72H134.399V34ZM150.257 34.36C151.257 34.36 152.097 34.208 152.777 33.904C153.465 33.592 154.097 33.096 154.673 32.416V34H157.529V26.08C157.529 25.488 157.505 24.952 157.457 24.472C157.409 23.992 157.257 23.512 157.001 23.032C156.545 22.168 155.873 21.56 154.985 21.208C154.097 20.856 153.081 20.68 151.937 20.68C150.377 20.68 149.145 21.016 148.241 21.688C147.337 22.36 146.721 23.232 146.393 24.304L149.345 25.24C149.553 24.648 149.917 24.236 150.437 24.004C150.957 23.772 151.457 23.656 151.937 23.656C152.705 23.656 153.277 23.8 153.653 24.088C154.029 24.368 154.249 24.812 154.313 25.42C153.097 25.596 152.025 25.768 151.097 25.936C150.169 26.096 149.393 26.288 148.769 26.512C147.729 26.896 146.997 27.42 146.573 28.084C146.149 28.74 145.937 29.52 145.937 30.424C145.937 31.144 146.101 31.804 146.429 32.404C146.765 32.996 147.253 33.472 147.893 33.832C148.541 34.184 149.329 34.36 150.257 34.36ZM150.953 31.792C150.393 31.792 149.949 31.668 149.621 31.42C149.293 31.164 149.129 30.816 149.129 30.376C149.129 30.048 149.233 29.768 149.441 29.536C149.649 29.296 149.993 29.08 150.473 28.888C150.841 28.752 151.293 28.628 151.829 28.516C152.373 28.396 153.193 28.244 154.289 28.06C154.281 28.372 154.257 28.716 154.217 29.092C154.177 29.46 154.089 29.784 153.953 30.064C153.865 30.248 153.697 30.476 153.449 30.748C153.209 31.02 152.881 31.264 152.465 31.48C152.057 31.688 151.553 31.792 150.953 31.792ZM160.625 34H163.937V27.424C163.937 26.616 164.025 25.968 164.201 25.48C164.385 24.992 164.617 24.624 164.897 24.376C165.177 24.12 165.477 23.948 165.797 23.86C166.117 23.772 166.417 23.728 166.697 23.728C167.393 23.728 167.929 23.884 168.305 24.196C168.689 24.508 168.965 24.896 169.133 25.36C169.301 25.824 169.401 26.288 169.433 26.752C169.465 27.208 169.481 27.584 169.481 27.88V34H172.793V26.728C172.793 26.512 172.777 26.168 172.745 25.696C172.713 25.224 172.621 24.704 172.469 24.136C172.317 23.56 172.061 23.008 171.701 22.48C171.349 21.952 170.853 21.516 170.213 21.172C169.573 20.828 168.745 20.656 167.729 20.656C166.793 20.656 165.977 20.812 165.281 21.124C164.585 21.436 164.001 21.852 163.529 22.372V16.72H160.625V34ZM175.907 34H179.195V27.376C179.195 25.872 179.787 24.848 180.971 24.304C181.355 24.12 181.783 24.012 182.255 23.98C182.735 23.94 183.155 23.976 183.515 24.088V21.04C182.931 20.968 182.347 20.984 181.763 21.088C181.179 21.184 180.651 21.376 180.179 21.664C179.875 21.84 179.607 22.052 179.375 22.3C179.151 22.548 178.955 22.824 178.787 23.128V21.04H175.907V34ZM193.573 34V31.288C192.805 31.392 192.105 31.424 191.473 31.384C190.841 31.344 190.381 31.096 190.093 30.64C189.941 30.4 189.857 30.08 189.841 29.68C189.833 29.272 189.829 28.816 189.829 28.312V23.56H193.573V21.04H189.829V17.44H186.565V21.04H184.357V23.56H186.565V28.504C186.565 29.28 186.573 29.976 186.589 30.592C186.605 31.2 186.773 31.8 187.093 32.392C187.445 33.024 187.957 33.484 188.629 33.772C189.309 34.052 190.077 34.2 190.933 34.216C191.797 34.24 192.677 34.168 193.573 34Z" fill="#192B3A"/>
</svg>
